<?xml version="1.0" ?>
<!DOCTYPE svg PUBLIC '-//W3C//DTD SVG 1.1//EN' 'http://www.w3.org/Graphics/SVG/1.1/DTD/svg11.dtd'>
<svg enable-background="new 0 0 32 32" height="32px" id="Layer_1" version="1.1" viewBox="0 0 32 32" width="32px" xml:space="preserve" xmlns="http://www.w3.org/2000/svg" xmlns:xlink="http://www.w3.org/1999/xlink">
  <defs>
    <!-- Define the shadow filter -->
    <filter id="shadow" x="-50%" y="-50%" width="200%" height="200%">
      <feGaussianBlur in="SourceAlpha" stdDeviation="1" result="blur"/>
      <feOffset in="blur" dx="3" dy="3" result="offsetBlur"/>
      <feComponentTransfer>
        <feFuncA type="linear" slope="0.5"/> <!-- Adjust opacity -->
      </feComponentTransfer>
      <feMerge>
        <feMergeNode/>
        <feMergeNode in="SourceGraphic"/>
      </feMerge>
    </filter>
  </defs>

  <!-- Apply transform to shift 5% up-left and shadow filter -->
  <g transform="translate(-1.0, -1.6)" filter="url(#shadow)">
    <path d="M20.377,16.519l6.567-6.566c0.962-0.963,0.962-2.539,0-3.502l-0.876-0.875c-0.963-0.964-2.539-0.964-3.501,0  L16,12.142L9.433,5.575c-0.962-0.963-2.538-0.963-3.501,0L5.056,6.45c-0.962,0.963-0.962,2.539,0,3.502l6.566,6.566l-6.566,6.567  c-0.962,0.963-0.962,2.538,0,3.501l0.876,0.876c0.963,0.963,2.539,0.963,3.501,0L16,20.896l6.567,6.566  c0.962,0.963,2.538,0.963,3.501,0l0.876-0.876c0.962-0.963,0.962-2.538,0-3.501L20.377,16.519z" fill="#515151"/>
  </g>
</svg>
